<svg xmlns="http://www.w3.org/2000/svg" xmlns:xlink="http://www.w3.org/1999/xlink" width="500" zoomAndPan="magnify" viewBox="0 0 375 374.999991" height="500" preserveAspectRatio="xMidYMid meet" version="1.2"><defs><clipPath id="3fef905ae8"><path d="M 32 74 L 313.238281 74 L 313.238281 311 L 32 311 Z M 32 74 "/></clipPath><clipPath id="b6cf2311d7"><path d="M 144.136719 218 L 360.808594 218 L 360.808594 295 L 144.136719 295 Z M 144.136719 218 "/></clipPath><clipPath id="3117162c21"><path d="M 144.136719 201.039062 L 291 201.039062 L 291 271 L 144.136719 271 Z M 144.136719 201.039062 "/></clipPath></defs><g id="29e503d756"><g clip-rule="nonzero" clip-path="url(#3fef905ae8)"><path style=" stroke:none;fill-rule:evenodd;fill:#1d5306;fill-opacity:1;" d="M 59.351562 206.4375 C 58.59375 207.976562 59.289062 206.664062 58.277344 208.382812 L 57.394531 209.644531 C 53.621094 165.523438 74.289062 131.671875 96.945312 113.410156 C 110.660156 102.355469 155.851562 77.554688 169.917969 97.074219 C 181.574219 113.253906 172.226562 125.355469 197.839844 148.46875 L 242.707031 186.675781 C 252.164062 194.167969 262.699219 204.128906 269.585938 214.839844 C 276.097656 224.972656 278.765625 231.882812 280.03125 241.246094 C 280.03125 241.246094 281.046875 216.242188 262.550781 191.488281 C 249.953125 176.996094 238.0625 167.863281 222.144531 155.59375 C 254.269531 155.335938 274.378906 145.414062 295.96875 153.128906 C 301.59375 155.136719 310.3125 160.367188 313.238281 163.191406 C 311.964844 159.429688 306.355469 153.964844 302.953125 151.667969 C 286.335938 140.453125 263.191406 145.605469 244.375 146.917969 C 216.003906 148.898438 191.332031 133.152344 188.3125 103.726562 C 188.148438 101.367188 186.769531 92.8125 188.300781 91.347656 C 209.511719 94.058594 240.902344 113.605469 252.3125 130.613281 C 203.34375 50.238281 83.097656 56.578125 43.316406 143.804688 C 13.640625 208.859375 49.121094 283.542969 113.980469 305.015625 C 131.632812 310.859375 151.058594 312.386719 169.972656 309.542969 C 175.855469 308.660156 181.601562 306.359375 186.105469 305.777344 C 144.957031 306.488281 121.46875 307.160156 88.910156 274.988281 C 68.378906 254.703125 61.773438 215.265625 90.1875 204.558594 C 95.992188 202.371094 102.960938 202.191406 109.863281 202.535156 C 129.082031 203.484375 163.722656 210.0625 174.472656 181.707031 C 170.664062 183.550781 168.203125 185.929688 164.183594 188.003906 C 146.824219 196.964844 117.914062 188.132812 96.554688 188.382812 C 103.476562 183.714844 134.042969 157.328125 138.6875 151.375 C 150.101562 136.753906 156.140625 121.046875 146.539062 98.554688 C 144.203125 123.464844 137.332031 132.8125 116.125 149.34375 C 93.746094 166.789062 72.300781 180.082031 59.351562 206.4375 Z M 59.351562 206.4375 "/></g><path style=" stroke:none;fill-rule:evenodd;fill:#8ec656;fill-opacity:1;" d="M 131.097656 243.144531 C 132.609375 242.226562 134.035156 241.117188 135.34375 239.808594 C 140.144531 235.015625 142.320312 228.597656 141.878906 222.328125 C 135.949219 226.847656 127.824219 227.140625 121.613281 223.207031 C 121.339844 223.03125 121.066406 222.847656 120.800781 222.660156 C 114.230469 218.441406 105.941406 217.980469 98.996094 221.277344 C 100.304688 223.472656 107.585938 234.453125 123.207031 236.421875 C 123.207031 236.421875 109.53125 240.300781 96.980469 225.359375 C 97.316406 230.621094 99.496094 235.789062 103.523438 239.808594 C 111.003906 247.28125 122.441406 248.390625 131.097656 243.144531 Z M 131.097656 243.144531 "/><path style=" stroke:none;fill-rule:evenodd;fill:#8ec656;fill-opacity:1;" d="M 169.316406 149.246094 C 171.070312 149.472656 172.828125 149.910156 174.550781 150.574219 C 180.886719 153.015625 185.480469 158.003906 187.621094 163.914062 C 180.367188 162.179688 172.820312 165.199219 168.738281 171.3125 C 168.558594 171.582031 168.382812 171.855469 168.21875 172.140625 C 163.921875 178.65625 156.53125 182.429688 148.84375 182.230469 C 149.148438 179.6875 151.351562 166.703125 164.828125 158.582031 C 164.828125 158.582031 150.753906 160.570312 145.34375 179.3125 C 143.515625 174.363281 143.414062 168.757812 145.464844 163.453125 C 149.269531 153.597656 159.273438 147.953125 169.316406 149.246094 Z M 169.316406 149.246094 "/><path style=" stroke:none;fill-rule:evenodd;fill:#8ec656;fill-opacity:1;" d="M 309.148438 181.085938 C 309.59375 182.796875 309.84375 184.589844 309.871094 186.433594 C 309.96875 193.210938 307.050781 199.332031 302.359375 203.519531 C 301.261719 196.152344 295.640625 190.289062 288.4375 188.789062 C 288.121094 188.722656 287.796875 188.667969 287.472656 188.617188 C 279.816406 187.070312 273.550781 181.632812 270.867188 174.433594 C 273.34375 173.769531 286.222656 170.960938 298.800781 180.417969 C 298.800781 180.417969 291.699219 168.121094 272.269531 170.105469 C 276.183594 166.5625 281.351562 164.375 287.046875 164.292969 C 297.625 164.140625 306.601562 171.300781 309.148438 181.085938 Z M 309.148438 181.085938 "/><path style=" stroke:none;fill-rule:evenodd;fill:#8ec656;fill-opacity:1;" d="M 295.695312 107.171875 C 297.214844 108.078125 298.652344 109.179688 299.96875 110.476562 C 304.800781 115.234375 307.027344 121.636719 306.628906 127.910156 C 300.667969 123.429688 292.542969 123.199219 286.359375 127.179688 C 286.085938 127.355469 285.816406 127.539062 285.550781 127.730469 C 279.011719 132 270.726562 132.519531 263.753906 129.273438 C 265.050781 127.066406 272.253906 116.035156 287.855469 113.949219 C 287.855469 113.949219 274.152344 110.171875 261.710938 125.207031 C 262.007812 119.941406 264.152344 114.757812 268.148438 110.707031 C 275.574219 103.183594 287 101.988281 295.695312 107.171875 Z M 295.695312 107.171875 "/><g clip-rule="nonzero" clip-path="url(#b6cf2311d7)"><path style=" stroke:none;fill-rule:evenodd;fill:#1d5306;fill-opacity:1;" d="M 299.472656 218.417969 L 299.472656 275.859375 L 208.792969 275.933594 C 214.113281 280.28125 217.4375 286.273438 217.394531 294.136719 L 307.410156 294.082031 C 308.273438 263.570312 351.5625 263.675781 352.503906 293.90625 C 359.003906 293.859375 359.90625 292.382812 359.96875 286.390625 L 359.96875 263.488281 C 360.050781 253.25 361.332031 260.007812 353.753906 240.597656 C 345.957031 219.90625 348.105469 221.816406 341.054688 221.285156 Z M 317.484375 252.285156 L 317.125 227.878906 L 340.273438 229.316406 C 344.492188 229.597656 344.527344 229.625 346.015625 234.519531 L 351.9375 250.308594 C 353.925781 255.152344 353.609375 256.582031 348.167969 255.871094 Z M 144.257812 275.972656 L 144.214844 288.878906 L 159.164062 294.167969 L 172.289062 294.160156 C 172.234375 286.679688 175.34375 280.382812 180.859375 275.964844 Z M 144.257812 275.972656 "/></g><g clip-rule="nonzero" clip-path="url(#3117162c21)"><path style=" stroke:none;fill-rule:nonzero;fill:#1d5306;fill-opacity:1;" d="M 290.207031 201.144531 L 144.140625 201.144531 L 144.140625 270.945312 L 290.207031 270.945312 Z M 290.207031 201.144531 "/></g><path style=" stroke:none;fill-rule:nonzero;fill:#1d5306;fill-opacity:1;" d="M 312.144531 293.652344 C 312.144531 293.070312 312.175781 292.488281 312.230469 291.90625 C 312.289062 291.324219 312.375 290.75 312.488281 290.175781 C 312.601562 289.605469 312.742188 289.039062 312.914062 288.480469 C 313.082031 287.921875 313.277344 287.375 313.503906 286.835938 C 313.726562 286.296875 313.976562 285.769531 314.25 285.253906 C 314.523438 284.738281 314.824219 284.238281 315.148438 283.753906 C 315.472656 283.269531 315.820312 282.800781 316.191406 282.351562 C 316.558594 281.898438 316.953125 281.46875 317.363281 281.054688 C 317.777344 280.644531 318.207031 280.25 318.660156 279.882812 C 319.109375 279.511719 319.578125 279.164062 320.0625 278.839844 C 320.550781 278.515625 321.046875 278.214844 321.5625 277.941406 C 322.078125 277.664062 322.605469 277.417969 323.144531 277.195312 C 323.683594 276.96875 324.230469 276.773438 324.789062 276.605469 C 325.347656 276.433594 325.914062 276.292969 326.484375 276.179688 C 327.058594 276.066406 327.632812 275.980469 328.214844 275.921875 C 328.796875 275.867188 329.378906 275.835938 329.960938 275.835938 C 330.542969 275.835938 331.125 275.867188 331.707031 275.921875 C 332.289062 275.980469 332.863281 276.066406 333.4375 276.179688 C 334.007812 276.292969 334.574219 276.433594 335.132812 276.605469 C 335.691406 276.773438 336.238281 276.96875 336.777344 277.195312 C 337.316406 277.417969 337.84375 277.664062 338.359375 277.941406 C 338.875 278.214844 339.375 278.515625 339.859375 278.839844 C 340.34375 279.164062 340.8125 279.511719 341.261719 279.882812 C 341.714844 280.25 342.144531 280.644531 342.558594 281.054688 C 342.972656 281.46875 343.363281 281.898438 343.734375 282.351562 C 344.101562 282.800781 344.449219 283.269531 344.773438 283.753906 C 345.097656 284.238281 345.398438 284.738281 345.671875 285.253906 C 345.949219 285.769531 346.195312 286.296875 346.421875 286.835938 C 346.644531 287.375 346.839844 287.921875 347.007812 288.480469 C 347.179688 289.039062 347.320312 289.605469 347.433594 290.175781 C 347.546875 290.75 347.632812 291.324219 347.691406 291.90625 C 347.746094 292.488281 347.777344 293.070312 347.777344 293.652344 C 347.777344 294.234375 347.746094 294.816406 347.691406 295.398438 C 347.632812 295.980469 347.546875 296.554688 347.433594 297.128906 C 347.320312 297.699219 347.179688 298.265625 347.007812 298.824219 C 346.839844 299.382812 346.644531 299.929688 346.421875 300.46875 C 346.195312 301.007812 345.949219 301.535156 345.671875 302.050781 C 345.398438 302.566406 345.097656 303.066406 344.773438 303.550781 C 344.449219 304.035156 344.101562 304.503906 343.734375 304.953125 C 343.363281 305.40625 342.972656 305.835938 342.558594 306.25 C 342.144531 306.664062 341.714844 307.054688 341.261719 307.425781 C 340.8125 307.792969 340.34375 308.140625 339.859375 308.464844 C 339.375 308.789062 338.875 309.089844 338.359375 309.363281 C 337.84375 309.640625 337.316406 309.886719 336.777344 310.113281 C 336.238281 310.335938 335.691406 310.53125 335.132812 310.699219 C 334.574219 310.871094 334.007812 311.011719 333.4375 311.125 C 332.863281 311.238281 332.289062 311.324219 331.707031 311.382812 C 331.125 311.4375 330.542969 311.46875 329.960938 311.46875 C 329.378906 311.46875 328.796875 311.4375 328.214844 311.382812 C 327.632812 311.324219 327.058594 311.238281 326.484375 311.125 C 325.914062 311.011719 325.347656 310.871094 324.789062 310.699219 C 324.230469 310.53125 323.683594 310.335938 323.144531 310.113281 C 322.605469 309.886719 322.078125 309.640625 321.5625 309.363281 C 321.046875 309.089844 320.550781 308.789062 320.0625 308.464844 C 319.578125 308.140625 319.109375 307.792969 318.660156 307.425781 C 318.207031 307.054688 317.777344 306.664062 317.363281 306.25 C 316.953125 305.835938 316.558594 305.40625 316.191406 304.953125 C 315.820312 304.503906 315.472656 304.035156 315.148438 303.550781 C 314.824219 303.066406 314.523438 302.566406 314.25 302.050781 C 313.976562 301.535156 313.726562 301.007812 313.503906 300.46875 C 313.277344 299.929688 313.082031 299.382812 312.914062 298.824219 C 312.742188 298.265625 312.601562 297.699219 312.488281 297.128906 C 312.375 296.554688 312.289062 295.980469 312.230469 295.398438 C 312.175781 294.816406 312.144531 294.234375 312.144531 293.652344 "/><path style=" stroke:none;fill-rule:nonzero;fill:#1d5306;fill-opacity:1;" d="M 177.027344 293.652344 C 177.027344 293.070312 177.058594 292.488281 177.113281 291.90625 C 177.171875 291.324219 177.257812 290.75 177.371094 290.175781 C 177.484375 289.605469 177.625 289.039062 177.796875 288.480469 C 177.964844 287.921875 178.160156 287.375 178.386719 286.835938 C 178.609375 286.296875 178.859375 285.769531 179.132812 285.253906 C 179.40625 284.738281 179.707031 284.238281 180.03125 283.753906 C 180.355469 283.269531 180.703125 282.800781 181.074219 282.351562 C 181.441406 281.898438 181.835938 281.46875 182.246094 281.054688 C 182.660156 280.644531 183.089844 280.25 183.542969 279.882812 C 183.992188 279.511719 184.460938 279.164062 184.945312 278.839844 C 185.429688 278.515625 185.929688 278.214844 186.445312 277.941406 C 186.960938 277.664062 187.488281 277.417969 188.027344 277.195312 C 188.566406 276.96875 189.113281 276.773438 189.671875 276.605469 C 190.230469 276.433594 190.796875 276.292969 191.367188 276.179688 C 191.941406 276.066406 192.515625 275.980469 193.097656 275.921875 C 193.679688 275.867188 194.261719 275.835938 194.84375 275.835938 C 195.425781 275.835938 196.007812 275.867188 196.589844 275.921875 C 197.171875 275.980469 197.746094 276.066406 198.320312 276.179688 C 198.890625 276.292969 199.457031 276.433594 200.015625 276.605469 C 200.574219 276.773438 201.121094 276.96875 201.660156 277.195312 C 202.199219 277.417969 202.726562 277.664062 203.242188 277.941406 C 203.757812 278.214844 204.257812 278.515625 204.742188 278.839844 C 205.226562 279.164062 205.695312 279.511719 206.144531 279.882812 C 206.597656 280.25 207.027344 280.644531 207.441406 281.054688 C 207.855469 281.46875 208.246094 281.898438 208.617188 282.351562 C 208.984375 282.800781 209.332031 283.269531 209.65625 283.753906 C 209.980469 284.238281 210.28125 284.738281 210.554688 285.253906 C 210.832031 285.769531 211.078125 286.296875 211.304688 286.835938 C 211.527344 287.375 211.722656 287.921875 211.890625 288.480469 C 212.0625 289.039062 212.203125 289.605469 212.316406 290.175781 C 212.429688 290.75 212.515625 291.324219 212.574219 291.90625 C 212.628906 292.488281 212.660156 293.070312 212.660156 293.652344 C 212.660156 294.234375 212.628906 294.816406 212.574219 295.398438 C 212.515625 295.980469 212.429688 296.554688 212.316406 297.128906 C 212.203125 297.699219 212.0625 298.265625 211.890625 298.824219 C 211.722656 299.382812 211.527344 299.929688 211.304688 300.46875 C 211.078125 301.007812 210.832031 301.535156 210.554688 302.050781 C 210.28125 302.566406 209.980469 303.066406 209.65625 303.550781 C 209.332031 304.035156 208.984375 304.503906 208.617188 304.953125 C 208.246094 305.40625 207.855469 305.835938 207.441406 306.25 C 207.027344 306.664062 206.597656 307.054688 206.144531 307.425781 C 205.695312 307.792969 205.226562 308.140625 204.742188 308.464844 C 204.257812 308.789062 203.757812 309.089844 203.242188 309.363281 C 202.726562 309.640625 202.199219 309.886719 201.660156 310.113281 C 201.121094 310.335938 200.574219 310.53125 200.015625 310.699219 C 199.457031 310.871094 198.890625 311.011719 198.320312 311.125 C 197.746094 311.238281 197.171875 311.324219 196.589844 311.382812 C 196.007812 311.4375 195.425781 311.46875 194.84375 311.46875 C 194.261719 311.46875 193.679688 311.4375 193.097656 311.382812 C 192.515625 311.324219 191.941406 311.238281 191.367188 311.125 C 190.796875 311.011719 190.230469 310.871094 189.671875 310.699219 C 189.113281 310.53125 188.566406 310.335938 188.027344 310.113281 C 187.488281 309.886719 186.960938 309.640625 186.445312 309.363281 C 185.929688 309.089844 185.429688 308.789062 184.945312 308.464844 C 184.460938 308.140625 183.992188 307.792969 183.542969 307.425781 C 183.089844 307.054688 182.660156 306.664062 182.246094 306.25 C 181.835938 305.835938 181.441406 305.40625 181.074219 304.953125 C 180.703125 304.503906 180.355469 304.035156 180.03125 303.550781 C 179.707031 303.066406 179.40625 302.566406 179.132812 302.050781 C 178.859375 301.535156 178.609375 301.007812 178.386719 300.46875 C 178.160156 299.929688 177.964844 299.382812 177.796875 298.824219 C 177.625 298.265625 177.484375 297.699219 177.371094 297.128906 C 177.257812 296.554688 177.171875 295.980469 177.113281 295.398438 C 177.058594 294.816406 177.027344 294.234375 177.027344 293.652344 "/></g></svg>